# xmcd CD database file
#
# Track frame offsets:
#	150
#	13955
#	30820
#	53585
#	68695
#	102587
#	116292
#	131012
#	152427
#	166787
#	186670
#
# Disc length: 2715 seconds
#
# Revision: 2
# Processed by: cddbd v1.4PL0 Copyright (c) Steve Scherf et al.
# Submitted via: CDex 1.50beta10
#
DISCID=850a990b
DTITLE=Weepin' Willie - At Last, On Time
DYEAR=2000
DGENRE=Blues
TTITLE0=Love Call
TTITLE1=Fever
TTITLE2=Can't Go Wrong Woman
TTITLE3=Big Mary's House
TTITLE4=They Call Me Weepin Willie
TTITLE5=Glory Train
TTITLE6=At Last, On Time
TTITLE7=Dirty Old Man
TTITLE8=Weepin Willie Boogie
TTITLE9=Love Me If You Want To
TTITLE10=Let The Good Times Roll
EXTD=2000, APO Records, CD 2009\nProducer: Joe Harley\n YEAR: 2000
EXTT0=
EXTT1=
EXTT2=
EXTT3=
EXTT4=
EXTT5=
EXTT6=
EXTT7=
EXTT8=
EXTT9=
EXTT10=
PLAYORDER=
